<svg xmlns="http://www.w3.org/2000/svg" version="1.1" xmlns:xlink="http://www.w3.org/1999/xlink" xmlns:svgjs="http://svgjs.dev/svgjs" width="128" height="128" viewBox="0 0 128 128"><g transform="matrix(0.8046875,0,0,0.8046875,12.333870967741937,20.25648710643557)"><svg viewBox="0 0 155 131" data-background-color="#ffffff" preserveAspectRatio="xMidYMid meet" height="108" width="128" xmlns="http://www.w3.org/2000/svg" xmlns:xlink="http://www.w3.org/1999/xlink"><g id="tight-bounds" transform="matrix(1,0,0,1,0.25,0.4377224199288321)"><svg viewBox="0 0 154.5 130.12455516014234" height="130.12455516014234" width="154.5"><g><svg viewBox="0 0 154.5 130.12455516014234" height="130.12455516014234" width="154.5"><g><svg viewBox="0 0 154.5 130.12455516014234" height="130.12455516014234" width="154.5"><g id="textblocktransform"><svg viewBox="0 0 154.5 130.12455516014234" height="130.12455516014234" width="154.5" id="textblock"><g><svg viewBox="0 0 154.5 130.12455516014234" height="130.12455516014234" width="154.5"><g transform="matrix(1,0,0,1,0,0)"><svg width="154.5" viewBox="0.5 -35 42.15 35.5" height="130.12455516014234" data-palette-color="#141d2f"><path d="M32.9-1.25L28.55 0.5 24.65-9.5 8.45-9.5 4.55 0.4 0.5-1.25 14.2-35 19.4-35 32.9-1.25ZM16.55-30.3L9.95-13.5 23.1-13.5 16.55-30.3ZM42.65 0L37.9 0 37.9-35 42.65-35 42.65 0Z" opacity="1" transform="matrix(1,0,0,1,0,0)" fill="#000000" class="wordmark-text-0" data-fill-palette-color="primary" id="text-0"></path></svg></g></svg></g></svg></g></svg></g><g></g></svg></g><defs></defs></svg><rect width="154.5" height="130.12455516014234" fill="none" stroke="none" visibility="hidden"></rect></g></svg></g></svg>